<svg xmlns="http://www.w3.org/2000/svg" xmlns:xlink="http://www.w3.org/1999/xlink" version="1.1" x="0px" y="0px" viewBox="0 0 100 125" style="enable-background:new 0 0 100 100;" xml:space="preserve"><g><path fill="#757575" d="M23.8,38.7v35.5c0,9.4,7.6,17,17,17h18.4c9.4,0,17-7.6,17-17V38.7c3.4-1.6,5.8-5.1,5.8-9.1c0-5.6-4.5-10.1-10.1-10.1h-7.3   c0-5.9-4.8-10.7-10.7-10.7h-7.7c-5.9,0-10.7,4.8-10.7,10.7h-7.3C22.5,19.5,18,24,18,29.6C18,33.6,20.4,37.1,23.8,38.7z M59.2,85.2   H40.8c-6.1,0-11-4.9-11-11V39.7h40.4v34.5C70.2,80.2,65.2,85.2,59.2,85.2z M46.1,14.8h7.7c2.6,0,4.7,2.1,4.7,4.7H41.4   C41.5,16.9,43.6,14.8,46.1,14.8z M28.1,25.5h43.8c2.2,0,4.1,1.8,4.1,4.1c0,2.2-1.8,4.1-4.1,4.1H28.1c-2.2,0-4.1-1.8-4.1-4.1   C24,27.3,25.9,25.5,28.1,25.5z"/><rect fill="#757575" x="57.3" y="47.3" width="6" height="29.2"/><rect fill="#757575" x="47" y="47.3" width="6" height="29.2"/><rect fill="#757575" x="36.7" y="47.3" width="6" height="29.2"/></g></svg>