<svg xmlns="http://www.w3.org/2000/svg" xmlns:xlink="http://www.w3.org/1999/xlink" version="1.1" x="0px" y="0px" viewBox="0 0 100 125" enable-background="new 0 0 100 100" xml:space="preserve"><g><path fill="none" d="M63.5,46.206h-27c-2.485,0-4.5,2.014-4.5,4.5c0,2.485,2.015,4.5,4.5,4.5h27c2.484,0,4.5-2.015,4.5-4.5   C68,48.221,65.984,46.206,63.5,46.206z"/><path d="M50,5C25.187,5,5,25.187,5,50c0,24.813,20.187,45,45,45c24.813,0,45-20.188,45-45C95,25.187,74.813,5,50,5z M63.5,55.206   h-27c-2.485,0-4.5-2.015-4.5-4.5c0-2.486,2.015-4.5,4.5-4.5h27c2.484,0,4.5,2.015,4.5,4.5C68,53.191,65.984,55.206,63.5,55.206z"/></g></svg>