<svg xmlns="http://www.w3.org/2000/svg" xmlns:xlink="http://www.w3.org/1999/xlink" version="1.1" x="0px" y="0px" viewBox="0 0 100 125" style="enable-background:new 0 0 100 100;" xml:space="preserve"><style type="text/css">
	.st0{fill-rule:evenodd;clip-rule:evenodd;}
</style><path class="st0" d="M50.5,95.9c-25,0-45.4-20.3-45.4-45.4S25.5,5.1,50.5,5.1s45.4,20.3,45.4,45.4S75.5,95.9,50.5,95.9z M66.4,46H55  V34.6c0-2.5-2-4.5-4.5-4.5s-4.5,2-4.5,4.5V46H34.6c-2.5,0-4.5,2-4.5,4.5s2,4.5,4.5,4.5H46v11.3c0,2.5,2,4.5,4.5,4.5s4.5-2,4.5-4.5  V55h11.3c2.5,0,4.5-2,4.5-4.5S68.9,46,66.4,46z"/></svg>